<svg width="523" height="401" viewBox="0 0 523 401" fill="none" xmlns="http://www.w3.org/2000/svg">
<path d="M465.343 74.9082L253.242 286.835L242.803 297.264L220.522 319.527L168.849 371.158L9.30499 211.746L48.1162 172.975L95.6185 220.436L141.271 266.051L168.849 293.608L196.428 266.051L364.479 98.1307L426.532 36.1289L465.343 74.9082Z" fill="url(#paint0_linear_514_27080)"/>
<path d="M253.242 249.427V286.835L242.803 297.265L220.522 319.527V249.427H253.242Z" fill="#E3892B"/>
<path d="M378.145 112.47V162.034L242.805 297.262H109.987C102.048 297.262 95.6163 290.827 95.6163 282.903V112.47C95.6163 104.538 102.046 98.1112 109.987 98.1112H363.772C364.011 98.1112 364.238 98.1199 364.477 98.1285C372.088 98.4968 378.145 104.776 378.145 112.47Z" fill="url(#paint1_linear_514_27080)"/>
<path d="M367.085 76.9183V173.083L274.04 266.051H106.677V76.9183H367.085Z" fill="white"/>
<path d="M106.679 99.7596L367.083 99.7596V76.9162L106.679 76.9162V99.7596Z" fill="#4877EF"/>
<path d="M151.59 92.6549H120.659C118.945 92.6549 117.553 91.2664 117.553 89.5509V87.1249C117.553 85.4115 118.942 84.0209 120.659 84.0209H151.588C153.303 84.0209 154.695 85.4093 154.695 87.1249V89.5509C154.695 91.2642 153.305 92.6549 151.59 92.6549Z" fill="#F5F7FF"/>
<path d="M378.356 279.347C378.36 279.345 378.364 279.345 378.369 279.347C378.312 279.371 378.306 279.373 378.356 279.347Z" fill="#323657"/>
<path d="M405.042 220.187L431.037 205.661L422.101 205.072L405.042 220.187Z" fill="#D6D6D6"/>
<path d="M405.042 220.187L413.041 207.331L419.753 207.154L405.042 220.187Z" fill="#E8E8E8"/>
<path d="M425.058 209.001L425.58 212.274L405.042 220.187L425.058 209.001Z" fill="#C2C2C2"/>
<path d="M64.1888 199.594C64.1043 198.574 64.0241 197.543 63.9525 196.531L64.6614 196.481C64.733 197.491 64.8132 198.52 64.8977 199.538L64.1888 199.594ZM432.249 196.36L431.843 195.775C431.856 195.767 433.101 194.9 434.77 193.349L435.255 193.869C433.545 195.459 432.301 196.325 432.249 196.36ZM63.7097 192.693C63.6382 191.413 63.5753 190.122 63.5255 188.852L64.2365 188.824C64.2864 190.089 64.3492 191.378 64.4208 192.654L63.7097 192.693ZM437.959 191.086L437.423 190.618C438.275 189.643 439.06 188.634 439.758 187.62L440.346 188.023C439.63 189.06 438.828 190.091 437.959 191.086ZM63.4019 185.01C63.3715 183.73 63.352 182.434 63.3412 181.165L64.0522 181.161C64.0609 182.426 64.0804 183.717 64.1108 184.992L63.4019 185.01ZM442.329 184.681L441.694 184.362C442.275 183.208 442.752 182.029 443.118 180.862L443.797 181.074C443.42 182.276 442.925 183.491 442.329 184.681ZM64.0587 177.329L63.3477 177.322C63.3607 176.04 63.3845 174.747 63.4192 173.478L64.1303 173.497C64.0956 174.762 64.0718 176.051 64.0587 177.329ZM444.612 177.262L443.905 177.179C443.99 176.454 444.033 175.717 444.033 174.992C444.033 174.47 444.011 173.941 443.968 173.419L444.677 173.361C444.722 173.902 444.746 174.45 444.746 174.992C444.742 175.745 444.699 176.508 444.612 177.262ZM443.287 169.717C442.956 168.543 442.503 167.356 441.948 166.189L442.589 165.883C443.164 167.086 443.628 168.312 443.972 169.525L443.287 169.717ZM64.2734 169.667L63.5623 169.635C63.6208 168.355 63.6924 167.064 63.7748 165.797L64.4858 165.842C64.4034 167.105 64.3319 168.392 64.2734 169.667ZM440.072 162.901C439.4 161.887 438.635 160.867 437.792 159.864L438.336 159.407C439.194 160.429 439.977 161.473 440.664 162.509L440.072 162.901ZM64.7698 162.021L64.0609 161.961C64.1693 160.683 64.2907 159.396 64.423 158.133L65.1297 158.207C64.9974 159.465 64.876 160.75 64.7698 162.021ZM435.212 157.065C435.11 156.963 435.006 156.862 434.902 156.76C434.109 155.987 433.259 155.252 432.372 154.574L432.806 154.009C433.714 154.704 434.588 155.458 435.401 156.251C435.507 156.355 435.611 156.457 435.715 156.558L435.212 157.065ZM65.5654 154.403L64.8587 154.314C65.0169 153.043 65.1925 151.761 65.3768 150.504L66.0814 150.608C65.8971 151.86 65.7237 153.136 65.5654 154.403ZM429.229 152.48C428.173 151.867 427.035 151.29 425.847 150.766L426.135 150.116C427.347 150.651 428.509 151.239 429.586 151.865L429.229 152.48ZM422.3 149.393C421.151 149.003 419.955 148.641 418.647 148.293L418.832 147.606C420.156 147.961 421.366 148.325 422.53 148.722L422.3 149.393ZM414.93 147.392C413.798 147.142 412.569 146.893 411.173 146.627L411.307 145.929C412.71 146.198 413.945 146.449 415.083 146.698L414.93 147.392ZM66.6797 146.826L65.9773 146.707C66.1919 145.444 66.4196 144.171 66.6602 142.923L67.3582 143.057C67.1198 144.301 66.8922 145.568 66.6797 146.826ZM407.394 145.932L406.247 145.726C405.371 145.57 404.493 145.412 403.609 145.251L403.737 144.552C404.619 144.712 405.499 144.87 406.373 145.026L407.52 145.232L407.394 145.932ZM399.828 144.537C398.469 144.268 397.238 144.006 396.058 143.737L396.217 143.044C397.387 143.311 398.614 143.571 399.967 143.839L399.828 144.537ZM392.317 142.81C391.038 142.466 389.793 142.098 388.618 141.714L388.837 141.038C390.001 141.418 391.235 141.781 392.501 142.124L392.317 142.81ZM384.985 140.417C383.771 139.94 382.578 139.425 381.443 138.885L381.748 138.244C382.869 138.777 384.046 139.286 385.245 139.756L384.985 140.417ZM68.1235 139.306L67.4276 139.156C67.6986 137.902 67.9848 136.641 68.2817 135.407L68.9733 135.573C68.6785 136.802 68.3923 138.058 68.1235 139.306ZM378.019 137.103C376.901 136.464 375.8 135.777 374.746 135.06L375.147 134.473C376.185 135.179 377.269 135.857 378.373 136.485L378.019 137.103ZM371.646 132.764C370.655 131.965 369.678 131.114 368.741 130.228L369.229 129.712C370.152 130.583 371.115 131.425 372.09 132.212L371.646 132.764ZM69.9141 131.861L69.2269 131.679C69.5565 130.442 69.9033 129.194 70.261 127.975L70.9439 128.174C70.5884 129.389 70.2415 130.63 69.9141 131.861ZM366.042 127.475C365.192 126.541 364.355 125.551 363.553 124.533L364.113 124.093C364.904 125.098 365.732 126.075 366.569 126.996L366.042 127.475ZM72.0647 124.513L71.3861 124.297C71.7763 123.077 72.1861 121.849 72.6066 120.649L73.2787 120.883C72.8603 122.079 72.4527 123.3 72.0647 124.513ZM361.271 121.431C360.557 120.396 359.855 119.306 359.183 118.195L359.792 117.827C360.458 118.927 361.151 120.004 361.856 121.028L361.271 121.431ZM74.5859 117.287L73.9204 117.036C74.3734 115.841 74.8482 114.636 75.3295 113.458L75.9885 113.726C75.5094 114.898 75.0368 116.096 74.5859 117.287ZM357.282 114.851C356.69 113.744 356.109 112.587 355.552 111.413L356.196 111.108C356.748 112.271 357.325 113.419 357.91 114.515L357.282 114.851ZM77.4865 110.202L76.8361 109.914C77.3521 108.742 77.8919 107.566 78.4382 106.416L79.082 106.721C78.5379 107.867 78.0003 109.037 77.4865 110.202ZM353.978 107.902C353.49 106.747 353.009 105.547 352.547 104.332L353.213 104.081C353.67 105.287 354.147 106.481 354.633 107.627L353.978 107.902ZM80.7708 103.29L80.1378 102.968C80.7188 101.828 81.3214 100.684 81.9328 99.5646L82.5571 99.9047C81.9501 101.018 81.3475 102.157 80.7708 103.29ZM351.249 100.713C350.845 99.5256 350.449 98.2953 350.069 97.0541L350.75 96.8462C351.127 98.0809 351.522 99.3047 351.923 100.485L351.249 100.713ZM84.4388 96.5733L83.8253 96.2159C84.4713 95.1112 85.139 94.0021 85.8133 92.9213L86.4181 93.2982C85.7461 94.3725 85.0805 95.4751 84.4388 96.5733ZM348.996 93.361C348.662 92.1501 348.335 90.8982 348.023 89.6397L348.714 89.4685C349.026 90.7227 349.352 91.9682 349.683 93.1725L348.996 93.361ZM88.4884 90.0772L87.8966 89.683C88.6033 88.6194 89.336 87.5516 90.0731 86.5097L90.6541 86.9191C89.9214 87.9588 89.193 89.0202 88.4884 90.0772ZM347.095 85.927C346.757 84.7183 346.364 83.501 345.929 82.3097L346.596 82.0649C347.039 83.2736 347.435 84.5082 347.778 85.7342L347.095 85.927ZM92.9108 83.8302L92.3429 83.4035C93.1124 82.3833 93.9059 81.3588 94.7037 80.3624L95.2586 80.8064C94.4652 81.7985 93.6761 82.8165 92.9108 83.8302ZM344.489 78.7876C343.971 77.6461 343.401 76.4981 342.792 75.3761L343.418 75.0382C344.034 76.1753 344.613 77.3364 345.137 78.4952L344.489 78.7876ZM97.6931 77.854L97.1512 77.3948C97.9771 76.4223 98.8313 75.4475 99.6854 74.4988L100.214 74.9753C99.3646 75.9176 98.5169 76.8858 97.6931 77.854ZM102.82 72.1681L102.306 71.6764C103.189 70.7536 104.097 69.8309 105.005 68.932L105.506 69.4367C104.6 70.3313 103.696 71.2497 102.82 72.1681ZM340.86 72.0901C340.19 71.0331 339.468 69.9695 338.716 68.9363L339.293 68.5183C340.054 69.5666 340.784 70.6388 341.463 71.7111L340.86 72.0901ZM108.268 66.7897L107.782 66.2699C108.715 65.4013 109.675 64.5305 110.635 63.6857L111.106 64.2186C110.15 65.059 109.196 65.9233 108.268 66.7897ZM336.381 65.9168C335.586 64.9486 334.742 63.9782 333.875 63.0359L334.4 62.5551C335.276 63.5081 336.128 64.4894 336.93 65.4663L336.381 65.9168ZM114.017 61.7319L113.562 61.1861C114.542 60.3717 115.55 59.5572 116.558 58.7688L116.998 59.3276C115.994 60.1117 114.993 60.9218 114.017 61.7319ZM331.22 60.2893C330.326 59.4121 329.386 58.5326 328.43 57.677L328.904 57.1464C329.871 58.0085 330.819 58.8965 331.72 59.7825L331.22 60.2893ZM120.033 57.0121L119.61 56.4402C120.631 55.6843 121.678 54.9283 122.725 54.1962L123.133 54.7788C122.09 55.5066 121.048 56.2583 120.033 57.0121ZM325.52 55.1947C324.547 54.3998 323.532 53.6092 322.505 52.8402L322.932 52.2705C323.966 53.046 324.989 53.8431 325.971 54.6445L325.52 55.1947ZM126.294 52.6301L125.901 52.0366C126.964 51.3348 128.052 50.6373 129.136 49.9615L129.513 50.5658C128.433 51.2373 127.35 51.9326 126.294 52.6301ZM319.396 50.607C318.362 49.8943 317.289 49.1817 316.205 48.4929L316.587 47.8929C317.677 48.5882 318.759 49.303 319.799 50.0221L319.396 50.607ZM132.784 48.5839L132.424 47.9709C133.519 47.3275 134.644 46.6864 135.765 46.0647L136.11 46.6864C134.993 47.3037 133.875 47.9427 132.784 48.5839ZM312.94 46.4914C311.856 45.8524 310.736 45.2156 309.61 44.6005L309.953 43.9766C311.087 44.5961 312.214 45.2373 313.304 45.8806L312.94 46.4914ZM139.483 44.8734L139.154 44.2431C140.283 43.6539 141.438 43.069 142.587 42.5059L142.902 43.1449C141.757 43.7037 140.608 44.2864 139.483 44.8734ZM306.222 42.8134C305.099 42.2438 303.941 41.6763 302.779 41.1282L303.083 40.4849C304.251 41.0351 305.416 41.6048 306.543 42.1788L306.222 42.8134ZM146.362 41.4965L146.062 40.851C147.218 40.3181 148.402 39.7896 149.579 39.2806L149.861 39.9326C148.69 40.4394 147.513 40.9658 146.362 41.4965ZM299.291 39.5427C298.136 39.0358 296.948 38.5354 295.76 38.0502L296.029 37.3918C297.221 37.877 298.416 38.3817 299.578 38.8907L299.291 39.5427ZM153.399 38.4531L153.132 37.7946C154.313 37.3159 155.519 36.8437 156.718 36.3889L156.969 37.0538C155.775 37.5044 154.574 37.9766 153.399 38.4531ZM292.192 36.651C291.008 36.2026 289.796 35.7629 288.589 35.3405L288.825 34.669C290.037 35.0935 291.255 35.5354 292.445 35.986L292.192 36.651ZM160.57 35.7369L160.334 35.0654C161.537 34.6408 162.764 34.2228 163.98 33.8242L164.203 34.5C162.989 34.8964 161.769 35.3123 160.57 35.7369ZM284.955 34.1166C283.75 33.7268 282.519 33.3434 281.294 32.9773L281.498 32.2971C282.727 32.6654 283.965 33.0488 285.174 33.4408L284.955 34.1166ZM167.858 33.3412L167.65 32.661C168.871 32.2885 170.113 31.9246 171.346 31.578L171.539 32.2625C170.312 32.6091 169.072 32.9708 167.858 33.3412ZM277.606 31.9181C276.384 31.5823 275.135 31.2531 273.897 30.9412L274.07 30.2524C275.313 30.5665 276.566 30.8957 277.795 31.2336L277.606 31.9181ZM175.242 31.2618L175.064 30.5729C176.296 30.2545 177.553 29.9426 178.802 29.6459L178.966 30.3368C177.72 30.6336 176.467 30.9455 175.242 31.2618ZM270.168 30.0444C268.93 29.7607 267.669 29.4834 266.422 29.2235L266.567 28.5282C267.82 28.7903 269.087 29.0654 270.329 29.3513L270.168 30.0444ZM182.704 29.4942L182.554 28.7989C183.801 28.5303 185.069 28.2704 186.324 28.0256L186.461 28.7231C185.21 28.9657 183.946 29.2257 182.704 29.4942ZM262.659 28.4805C261.412 28.2466 260.14 28.0213 258.882 27.8112L258.999 27.1094C260.263 27.3217 261.538 27.5469 262.791 27.7809L262.659 28.4805ZM190.231 28.0278L190.109 27.3282C191.362 27.1094 192.639 26.8993 193.905 26.7043L194.013 27.4061C192.75 27.6011 191.477 27.809 190.231 28.0278ZM255.093 27.2155C253.836 27.0314 252.557 26.8538 251.293 26.6935L251.384 25.9895C252.654 26.152 253.938 26.3274 255.197 26.5137L255.093 27.2155ZM197.805 26.8581L197.71 26.1542C198.974 25.983 200.257 25.8249 201.525 25.6776L201.607 26.3838C200.344 26.5289 199.065 26.6892 197.805 26.8581ZM247.482 26.243C246.216 26.1065 244.93 25.9787 243.664 25.8661L243.727 25.1578C244.999 25.2704 246.287 25.3982 247.557 25.5368L247.482 26.243ZM205.416 25.983L205.349 25.2747C206.62 25.1534 207.907 25.0408 209.178 24.9433L209.232 25.6516C207.964 25.7491 206.68 25.8617 205.416 25.983ZM239.84 25.5585C238.574 25.4697 237.284 25.3895 236.011 25.3224L236.048 24.6119C237.327 24.6791 238.619 24.7592 239.89 24.848L239.84 25.5585ZM213.049 25.3939L213.008 24.6834C214.279 24.6097 215.568 24.5469 216.843 24.4949L216.871 25.2054C215.601 25.2574 214.315 25.3202 213.049 25.3939ZM232.179 25.1599C230.908 25.1166 229.621 25.0863 228.35 25.0668L228.361 24.3563C229.636 24.3758 230.93 24.4083 232.205 24.4495L232.179 25.1599ZM220.693 25.0884L220.678 24.378C221.949 24.3498 223.238 24.3347 224.513 24.3303L224.515 25.0408C223.245 25.0451 221.957 25.0625 220.693 25.0884Z" fill="#E0E0E0"/>
<path d="M485.188 96.6078C476.287 92.3991 465.994 94.6367 459.59 101.434C458.04 103.08 456.717 104.993 455.696 107.146C452.607 113.672 452.989 120.946 456.097 126.885C458.252 131.001 461.716 134.475 466.243 136.615C466.694 136.828 467.147 137.025 467.604 137.207C469.675 138.023 471.806 138.506 473.93 138.675C482.847 139.394 491.683 134.633 495.737 126.077C500.968 115.028 496.246 101.835 485.188 96.6078ZM490.727 123.708C487.69 130.124 481.065 133.693 474.379 133.154C472.785 133.026 471.188 132.664 469.636 132.051C469.293 131.917 468.953 131.77 468.614 131.609C465.222 130.004 462.625 127.401 461.007 124.314C458.675 119.861 458.389 114.406 460.706 109.515C461.471 107.9 462.462 106.466 463.624 105.233C468.426 100.136 476.143 98.4598 482.816 101.614C491.108 105.532 494.648 115.425 490.727 123.708Z" fill="#F0F0F0"/>
<path d="M461.007 124.314L456.097 126.885C452.989 120.946 452.605 113.672 455.696 107.146C456.717 104.991 458.04 103.078 459.59 101.434L463.624 105.233C462.462 106.468 461.469 107.902 460.706 109.516C458.389 114.407 458.675 119.861 461.007 124.314Z" fill="#2273B5"/>
<path d="M469.636 132.051L467.606 137.207C467.149 137.027 466.694 136.83 466.245 136.615C461.719 134.475 458.254 131.001 456.099 126.885L461.01 124.314C462.625 127.399 465.222 130.004 468.617 131.61C468.953 131.768 469.293 131.915 469.636 132.051Z" fill="#4DAFFF"/>
<path d="M473.932 138.675C471.806 138.504 469.677 138.021 467.606 137.207L469.636 132.051C471.188 132.664 472.785 133.026 474.379 133.154L473.932 138.675Z" fill="#4DAFFF"/>
<path d="M468.911 153.262H427.553V152.441H468.09V134.932H468.911V153.262Z" fill="#4DAFFF"/>
<path d="M449.323 143.891H427.553V148.819H449.323V143.891Z" fill="#E0E0E0"/>
<path d="M4.9519 71.9926H0.631348V100.622H4.9519V71.9926Z" fill="#E0E0E0"/>
<path d="M15.6807 77.8086H11.3601V100.62H15.6807V77.8086Z" fill="#E0E0E0"/>
<path d="M26.4094 73.5284H22.0889V100.622H26.4094V73.5284Z" fill="#E0E0E0"/>
<path d="M37.1382 81.9804H32.8176V100.622H37.1382V81.9804Z" fill="#E0E0E0"/>
<path d="M47.8669 74.4056H43.5464V100.619H47.8669V74.4056Z" fill="#E0E0E0"/>
<path d="M58.5935 70.4547H54.2729V100.619H58.5935V70.4547Z" fill="#E0E0E0"/>
<path d="M69.3223 68.8085H65.0017V100.619H69.3223V68.8085Z" fill="#E0E0E0"/>
<path d="M4.9519 82.6584H0.631348V100.619H4.9519V82.6584Z" fill="#4877EF"/>
<path d="M15.6807 86.3082H11.3601V100.619H15.6807V86.3082Z" fill="#4877EF"/>
<path d="M26.4094 83.6223H22.0889V100.619H26.4094V83.6223Z" fill="#4877EF"/>
<path d="M37.1382 88.9249H32.8176V100.619H37.1382V88.9249Z" fill="#4877EF"/>
<path d="M47.8669 84.1747H43.5464V100.622H47.8669V84.1747Z" fill="#4877EF"/>
<path d="M58.5935 81.6945H54.2729V100.619H58.5935V81.6945Z" fill="#4877EF"/>
<path d="M69.3223 80.6635H65.0017V100.622H69.3223V80.6635Z" fill="#4877EF"/>
<path d="M97.9142 27.326H72.9426V30.9304H97.9142V27.326Z" fill="#D9D9D9"/>
<path d="M108.366 33.9889H72.9426V37.5932H108.366V33.9889Z" fill="#D9D9D9"/>
<path d="M521.747 74.4901C519.234 67.4677 512.516 63.155 505.438 63.3673C503.723 63.4193 501.989 63.7355 500.287 64.3442C495.13 66.1875 491.433 70.2901 489.914 75.1399C488.86 78.4995 488.854 82.2187 490.133 85.7884C490.258 86.1436 490.397 86.4923 490.547 86.8346C491.219 88.3811 492.101 89.7804 493.148 91.0108C497.54 96.1704 504.831 98.3516 511.592 95.9364C520.325 92.8151 524.871 83.2129 521.747 74.4901ZM510.179 91.9812C505.108 93.792 499.643 92.1588 496.35 88.2902C495.565 87.3674 494.904 86.319 494.399 85.158C494.289 84.9024 494.184 84.6403 494.089 84.3739C493.131 81.6966 493.137 78.9089 493.926 76.3919C495.065 72.7572 497.837 69.6792 501.703 68.2973C502.98 67.8402 504.28 67.6041 505.564 67.5652C510.871 67.4049 515.907 70.6388 517.793 75.9045C520.134 82.4439 516.724 89.6418 510.179 91.9812Z" fill="#F0F0F0"/>
<path d="M493.924 76.3919L489.914 75.1399C491.433 70.2923 495.13 66.1875 500.287 64.3442C501.989 63.7355 503.725 63.4193 505.438 63.3673L505.564 67.5652C504.278 67.6042 502.977 67.8424 501.703 68.2973C497.835 69.6793 495.065 72.7551 493.924 76.3919Z" fill="#1A598C"/>
<path d="M494.399 85.158L490.547 86.8346C490.399 86.4945 490.261 86.1436 490.133 85.7884C488.854 82.2165 488.86 78.4995 489.914 75.14L493.924 76.3919C493.135 78.9111 493.129 81.6988 494.087 84.3739C494.184 84.6404 494.289 84.9025 494.399 85.158Z" fill="#2273B5"/>
<path d="M493.148 91.0086C492.101 89.7783 491.219 88.379 490.547 86.8324L494.399 85.1559C494.902 86.3169 495.565 87.3653 496.35 88.288L493.148 91.0086Z" fill="#4DAFFF"/>
<path d="M286.301 130.618H155.053V135.186H286.301V130.618Z" fill="#E8E8E8"/>
<path d="M286.301 145.503H155.053V150.071H286.301V145.503Z" fill="#E8E8E8"/>
<path d="M286.301 159.86H155.053V164.428H286.301V159.86Z" fill="#E8E8E8"/>
<path d="M286.301 174.745H155.053V179.313H286.301V174.745Z" fill="#E8E8E8"/>
<path d="M286.301 191.467H155.053V196.035H286.301V191.467Z" fill="#E8E8E8"/>
<path d="M286.301 206.35H155.053V210.918H286.301V206.35Z" fill="#E8E8E8"/>
<path d="M286.301 220.709H155.053V225.277H286.301V220.709Z" fill="#E8E8E8"/>
<path d="M286.301 235.594H155.053V240.162H286.301V235.594Z" fill="#E8E8E8"/>
<path d="M128.652 145.31H139.882C141.924 145.31 143.58 143.655 143.58 141.615V130.394C143.58 128.354 141.924 126.699 139.882 126.699H128.652C126.61 126.699 124.954 128.354 124.954 130.394V141.615C124.954 143.655 126.61 145.31 128.652 145.31Z" fill="#4CA1F4"/>
<path d="M128.652 203.642H139.882C141.924 203.642 143.58 201.988 143.58 199.949V188.729C143.58 186.689 141.924 185.034 139.882 185.034H128.652C126.61 185.034 124.954 186.689 124.954 188.729V199.949C124.954 201.99 126.61 203.642 128.652 203.642Z" fill="#4CA1F4"/>
<path d="M133.632 198.836L128.464 194.35C128.041 193.982 127.995 193.341 128.364 192.916C128.733 192.494 129.374 192.448 129.799 192.816L133.454 195.99L138.648 190.18C139.023 189.762 139.665 189.725 140.084 190.1C140.502 190.475 140.539 191.116 140.164 191.534L133.632 198.836Z" fill="white"/>
<path d="M128.652 174.361H139.882C141.924 174.361 143.58 172.707 143.58 170.666V159.446C143.58 157.405 141.924 155.75 139.882 155.75H128.652C126.61 155.75 124.954 157.405 124.954 159.446V170.668C124.954 172.709 126.61 174.361 128.652 174.361Z" fill="#4CA1F4"/>
<path d="M133.632 169.555L128.464 165.069C128.041 164.701 127.995 164.06 128.364 163.635C128.733 163.21 129.374 163.167 129.799 163.535L133.454 166.709L138.648 160.899C139.023 160.481 139.665 160.444 140.084 160.819C140.502 161.194 140.539 161.835 140.164 162.253L133.632 169.555Z" fill="white"/>
<path d="M128.652 232.926H139.882C141.924 232.926 143.58 231.271 143.58 229.23V218.01C143.58 215.97 141.924 214.315 139.882 214.315H128.652C126.61 214.315 124.954 215.97 124.954 218.01V229.23C124.954 231.271 126.61 232.926 128.652 232.926Z" fill="#4CA1F4"/>
<path d="M133.632 228.117L128.464 223.631C128.041 223.263 127.995 222.622 128.364 222.197C128.733 221.772 129.374 221.729 129.799 222.097L133.454 225.271L138.648 219.461C139.023 219.043 139.665 219.006 140.084 219.381C140.502 219.756 140.539 220.397 140.164 220.815L133.632 228.117Z" fill="white"/>
<path d="M132.093 137.425C132.093 137.185 132.108 136.953 132.14 136.732C132.173 136.511 132.231 136.299 132.323 136.096C132.411 135.892 132.539 135.699 132.708 135.521C132.875 135.344 133.096 135.181 133.37 135.034C133.506 134.96 133.686 134.863 133.914 134.744C134.139 134.623 134.36 134.484 134.575 134.326C134.79 134.168 134.976 133.988 135.134 133.782C135.293 133.576 135.371 133.349 135.371 133.098C135.371 132.751 135.245 132.48 134.993 132.288C134.742 132.093 134.451 131.997 134.126 131.997C133.916 131.997 133.729 132.036 133.567 132.114C133.404 132.192 133.257 132.288 133.125 132.398C132.992 132.508 132.88 132.632 132.786 132.768C132.691 132.905 132.607 133.026 132.535 133.13L130.911 131.997C131.184 131.356 131.618 130.858 132.212 130.501C132.806 130.143 133.476 129.966 134.222 129.966C134.62 129.966 135.019 130.024 135.418 130.139C135.817 130.254 136.175 130.438 136.489 130.689C136.804 130.94 137.061 131.265 137.261 131.666C137.46 132.064 137.56 132.547 137.56 133.115C137.56 133.713 137.437 134.215 137.189 134.618C136.942 135.023 136.578 135.376 136.095 135.682C135.873 135.829 135.65 135.959 135.425 136.076C135.199 136.191 134.991 136.312 134.803 136.438C134.614 136.563 134.46 136.706 134.345 136.862C134.23 137.02 134.172 137.209 134.172 137.43H132.093V137.425ZM132.14 141.281V138.92H134.204V141.281H132.14Z" fill="white"/>
<path d="M184.761 122.96C184.761 122.96 183.042 124.466 181.498 126.779C179.955 129.093 175.858 129.216 175.682 132.374C175.506 135.532 181.253 135.63 184.271 134.601C187.289 133.572 187.744 130.488 189.569 129.716C191.392 128.945 192.34 128.321 192.201 126.816C192.06 125.311 191.052 122.867 191.052 122.867C191.052 122.867 189.918 123.229 189.253 123.303C188.581 123.374 186.339 123.4 184.761 122.96Z" fill="#252840"/>
<path d="M205.44 37.3982C205.44 37.3982 204.285 44.269 203.353 48.807C202.973 50.6481 202.633 52.1037 202.423 52.5629C202.156 53.1391 199.986 55.4676 197.33 58.2012C192.669 62.9947 186.51 69.0316 186.51 69.0316L184.104 64.4655C184.104 64.4655 189.574 58.0583 193.283 53.7824C195 51.8048 196.337 50.282 196.582 50.0633C197.358 49.3701 198.258 42.5427 199.522 36.9174C200.786 31.2921 203.322 28.1816 203.322 28.1816L205.44 37.3982Z" fill="#FFBF55"/>
<path d="M197.328 58.2012C192.667 62.9947 186.508 69.0316 186.508 69.0316L184.102 64.4655C184.102 64.4655 189.571 58.0582 193.281 53.7824C194.417 54.3413 196.502 55.6712 197.328 58.2012Z" fill="#EEA886"/>
<path d="M227.219 121.078C227.219 121.078 228.801 122.826 229.738 123.887C230.674 124.947 234.26 126.842 234.279 129.991C234.301 133.405 231.635 133.106 229.263 132.983C226.891 132.857 224.964 131.222 223.965 129.287C222.965 127.355 220.31 126.846 220.121 125.287C219.935 123.727 221.352 120.922 221.352 120.922L227.219 121.078Z" fill="#252840"/>
<path d="M221.658 118.015L221.352 120.922C221.352 120.922 226.302 123.077 227.219 121.08L227.006 118.492L221.658 118.015Z" fill="#5F8CC9"/>
<path d="M185.03 120.855L184.759 122.958C184.759 122.958 187.75 124.015 191.046 122.865L191.113 120.994L185.03 120.855Z" fill="#5F8CC9"/>
<path d="M227.498 68.1045C227.669 68.7154 195.811 68.1045 195.811 68.1045C195.811 68.1045 204.623 61.6951 205.195 59.9839C205.765 58.2705 202.952 47.999 202.585 44.6546C202.29 41.9795 201.555 30.0119 203.32 28.1838C205.165 26.2733 211.807 24.2697 211.807 24.2697L221.491 24.6292C221.491 24.6292 223.089 24.9628 224.231 25.4935C225.374 26.0242 231.908 28.3484 232.968 31.6105C234.028 34.8726 226.449 45.3586 226.449 45.3586C226.449 45.3586 226.434 45.8308 226.412 46.6019C226.382 47.6308 226.341 49.1969 226.299 50.8951C226.25 53.0936 226.204 55.5153 226.204 57.2828C226.202 61.4395 227.327 67.4937 227.498 68.1045Z" fill="#FFBF55"/>
<path d="M227.498 68.1046C227.498 68.1046 231.832 74.4642 231.892 78.805C231.953 83.1458 230.288 95.1848 230.165 97.5697C230.043 99.9545 227.797 119.828 227.797 119.828C227.797 119.828 226.063 121.438 220.86 119.421C220.86 119.421 219.711 100.574 219.59 98.5552C219.468 96.5365 219.468 87.244 218.304 85.8989C217.142 84.5537 210.103 80.3342 209.186 79.5393C208.269 78.7443 192.277 82.5588 190.601 82.992C186.263 84.1162 188.24 91.6606 189.201 95.0419C190.807 100.7 192.21 121.132 192.21 121.132C192.21 121.132 189.118 122.447 183.944 121.336C183.944 121.336 173.779 84.4411 173.451 80.7739C173.124 77.1046 172.963 71.0548 198.015 66.4562L227.498 68.1046Z" fill="#323657"/>
<path d="M214.463 3.25003C214.463 3.25003 206.058 1.35471 207.977 11.9252C209.897 22.4956 211.918 23.3252 216.988 21.1375C222.059 18.9497 221.606 12.1786 221.862 8.858C222.118 5.5374 217.144 3.36483 214.463 3.25003Z" fill="#EEA886"/>
<path d="M212.239 26.9838C212.239 26.9838 215.961 30.9282 221.844 27.3433C221.844 27.3433 220.529 18.7982 221.222 14.635C221.914 10.4718 213.546 21.0855 213.546 21.0855C213.656 21.144 213.728 21.5404 213.745 22.1058C213.76 22.5845 213.734 23.1845 213.656 23.7996C213.483 25.1837 213.054 26.6437 212.239 26.9838Z" fill="#EEA886"/>
<path d="M218.97 10.5237C219.08 9.59229 220.925 9.25005 221.075 10.6472C221.222 12.0443 220.236 14.4985 219.536 14.258C218.835 14.0154 218.818 11.8104 218.97 10.5237Z" fill="#EEA886"/>
<path d="M221.452 14.2819C221.452 14.2819 221.235 10.9526 220.017 10.8486C218.799 10.7447 218.612 12.0855 218.612 12.0855L217.383 12.3172C217.383 12.3172 217.771 9.39735 216.555 8.88833C215.339 8.3793 208.679 10.4956 207.703 9.63779C206.728 8.78002 207.188 2.86014 208.952 2.05003C210.717 1.23991 215.59 -0.575257 219.161 1.83992C219.161 1.83992 221.944 1.52367 222.356 3.76772C222.772 6.01178 222.209 12.614 221.452 14.2819Z" fill="#3A3F47"/>
<path d="M213.656 23.7996C219.726 21.9302 220.184 18.2782 220.19 18.2219C218.192 21.653 213.745 22.1079 213.745 22.1079C213.758 22.5844 213.732 23.1844 213.656 23.7996Z" fill="#A77860"/>
<path d="M224.329 25.5411C224.329 25.5411 219.885 34.383 212.703 33.8112C205.523 33.2415 211.478 24.3541 211.805 24.2718C212.165 24.1808 219.169 22.4371 224.329 25.5411Z" fill="#EEA886"/>
<path d="M192.166 67.6562C192.166 67.6562 214.168 70.3659 227.498 68.1045L202.028 64.9247C202.028 64.9247 201.878 65.5746 192.166 67.6562Z" fill="#FFBF55"/>
<path d="M208.623 63.924L206.984 64.7536C206.984 64.7536 207.357 67.3551 208.254 68.1435L210.092 67.6756C210.095 67.6735 209.711 64.8208 208.623 63.924Z" fill="#EEA886"/>
<path d="M234.082 58.5976C233.755 58.9767 229.43 60.7161 224.543 62.5962C217.869 65.1652 210.337 67.5955 210.337 67.5955L208.623 63.924C208.623 63.924 216.509 59.6417 221.836 56.6395C224.353 55.2207 226.299 54.0879 226.575 53.8258C227.431 53.0113 227.654 51.703 227.023 49.4222C226.393 47.1413 224.942 36.6618 224.78 35.4401C224.617 34.2163 225.187 30.9564 228.248 30.7917C231.309 30.6293 232.866 31.4914 232.866 31.4914C232.866 31.4914 233.633 31.8098 234.206 39.2308C234.778 46.6517 234.858 57.7009 234.082 58.5976Z" fill="#FFBF55"/>
<path d="M226.41 46.6019C226.38 47.6329 226.338 49.1968 226.297 50.895C223.31 43.5802 225.036 37.7426 225.066 37.6451C224.743 39.6293 226.386 46.5044 226.41 46.6019Z" fill="#B08439"/>
<path d="M203.353 48.807C202.973 50.6481 202.633 52.1037 202.423 52.563C201.401 47.6308 202.321 41.3145 202.321 41.3145C202.459 44.3319 203.353 48.807 203.353 48.807Z" fill="#B08439"/>
<path d="M224.543 62.594C217.869 65.163 210.095 67.6735 210.095 67.6735L208.623 63.924C208.623 63.924 216.509 59.6416 221.836 56.6395C221.836 56.6395 223.776 57.5839 224.543 62.594Z" fill="#EEA886"/>
<path d="M208.148 67.8923L176.876 67.433L192.665 75.4432L208.148 67.8923Z" fill="#5E5853"/>
<path d="M192.665 75.4432L208.148 69.4497V67.8923L191.442 73.914L192.665 75.4432Z" fill="#91887F"/>
<path d="M207.337 64.81C207.337 64.81 205.384 64.5067 204.033 64.1926C202.988 63.95 200.391 64.2836 199.728 64.9551C199.067 65.6244 196.962 70.2923 196.565 70.5782C196.166 70.8642 196.769 71.5226 197.469 71.1912C197.469 71.1912 198.111 73.2338 199.695 72.4692C201.28 71.7046 202.355 70.0346 203.183 69.74C204.014 69.4454 208.844 67.9616 208.844 67.9616C208.844 67.9616 208.584 64.3139 207.337 64.81Z" fill="#EEA886"/>
<path d="M200.207 64.6475C200.207 64.6475 198.952 65.254 198.624 65.5226C198.297 65.7933 196.968 66.7854 196.647 67.0193C196.327 67.2533 197.133 67.9182 199.507 66.8894C201.881 65.8648 200.207 64.6475 200.207 64.6475Z" fill="#EEA886"/>
<path d="M192.665 75.4432L183.363 50.0654L153.377 50.555L162.241 73.9399L192.665 75.4432Z" fill="#6E6760"/>
<path d="M173.768 61.2922C174.683 63.1204 174.407 65.111 173.15 65.7392C171.895 66.3673 170.134 65.3948 169.22 63.5666C168.305 61.7384 168.58 59.7478 169.837 59.1196C171.095 58.4915 172.853 59.464 173.768 61.2922Z" fill="#807066"/>
<path d="M307.705 175.23H295.532C295.12 175.23 294.789 174.896 294.789 174.487V171.86C294.789 171.448 295.123 171.117 295.532 171.117H307.705C308.117 171.117 308.448 171.45 308.448 171.86V174.487C308.448 174.899 308.115 175.23 307.705 175.23Z" fill="#E0E0E0"/>
<path d="M307.705 185.094H295.532C295.12 185.094 294.789 184.761 294.789 184.351V181.724C294.789 181.312 295.123 180.981 295.532 180.981H307.705C308.117 180.981 308.448 181.315 308.448 181.724V184.351C308.448 184.761 308.115 185.094 307.705 185.094Z" fill="#E0E0E0"/>
<path d="M307.705 194.959H295.532C295.12 194.959 294.789 194.625 294.789 194.216V191.588C294.789 191.177 295.123 190.845 295.532 190.845H307.705C308.117 190.845 308.448 191.179 308.448 191.588V194.216C308.448 194.625 308.115 194.959 307.705 194.959Z" fill="#E0E0E0"/>
<path d="M307.705 204.823H295.532C295.12 204.823 294.789 204.489 294.789 204.08V201.453C294.789 201.041 295.123 200.71 295.532 200.71H307.705C308.117 200.71 308.448 201.043 308.448 201.453V204.08C308.448 204.489 308.115 204.823 307.705 204.823Z" fill="#E0E0E0"/>
<path d="M307.705 214.687H295.532C295.12 214.687 294.789 214.354 294.789 213.944V211.317C294.789 210.905 295.123 210.574 295.532 210.574H307.705C308.117 210.574 308.448 210.907 308.448 211.317V213.944C308.448 214.354 308.115 214.687 307.705 214.687Z" fill="#E0E0E0"/>
<path d="M307.705 224.552H295.532C295.12 224.552 294.789 224.218 294.789 223.809V221.181C294.789 220.77 295.123 220.438 295.532 220.438H307.705C308.117 220.438 308.448 220.772 308.448 221.181V223.809C308.448 224.218 308.115 224.552 307.705 224.552Z" fill="#E0E0E0"/>
<path d="M317.233 175.23H314.833C314.421 175.23 314.089 174.896 314.089 174.487V171.86C314.089 171.448 314.423 171.117 314.833 171.117H317.233C317.644 171.117 317.976 171.45 317.976 171.86V174.487C317.976 174.899 317.642 175.23 317.233 175.23Z" fill="#E0E0E0"/>
<path d="M317.233 185.094H314.833C314.421 185.094 314.089 184.761 314.089 184.351V181.724C314.089 181.312 314.423 180.981 314.833 180.981H317.233C317.644 180.981 317.976 181.315 317.976 181.724V184.351C317.976 184.761 317.642 185.094 317.233 185.094Z" fill="#E0E0E0"/>
<path d="M317.233 194.959H314.833C314.421 194.959 314.089 194.625 314.089 194.216V191.588C314.089 191.177 314.423 190.845 314.833 190.845H317.233C317.644 190.845 317.976 191.179 317.976 191.588V194.216C317.976 194.625 317.642 194.959 317.233 194.959Z" fill="#E0E0E0"/>
<path d="M317.233 204.823H314.833C314.421 204.823 314.089 204.489 314.089 204.08V201.453C314.089 201.041 314.423 200.71 314.833 200.71H317.233C317.644 200.71 317.976 201.043 317.976 201.453V204.08C317.976 204.489 317.642 204.823 317.233 204.823Z" fill="#E0E0E0"/>
<path d="M317.233 214.687H314.833C314.421 214.687 314.089 214.354 314.089 213.944V211.317C314.089 210.905 314.423 210.574 314.833 210.574H317.233C317.644 210.574 317.976 210.907 317.976 211.317V213.944C317.976 214.354 317.642 214.687 317.233 214.687Z" fill="#E0E0E0"/>
<path d="M317.233 224.552H314.833C314.421 224.552 314.089 224.218 314.089 223.809V221.181C314.089 220.77 314.423 220.438 314.833 220.438H317.233C317.644 220.438 317.976 220.772 317.976 221.181V223.809C317.976 224.218 317.642 224.552 317.233 224.552Z" fill="#E0E0E0"/>
<path d="M315.269 225.271C315.269 225.271 309.431 212.055 316.203 213.149C316.203 213.149 318.509 215.053 320.875 218.933C322.667 221.872 326.394 229.65 326.255 232.282C326.116 234.912 324.243 236.874 322.223 241.1C322.223 241.1 318.02 248.942 317.842 249.886L313.398 247.581C313.398 247.581 317.163 240.084 319.817 233.493L315.269 225.271Z" fill="#6F5BE0"/>
<path d="M335.501 258.544L257.692 245.227L259.719 233.335L337.528 246.652L335.501 258.544Z" fill="url(#paint2_linear_514_27080)"/>
<path d="M259.474 234.76L255.734 234.124L254.197 243.15L257.937 243.786L259.474 234.76Z" fill="#2D3038"/>
<path d="M281.474 337.235H280.372C280.372 337.235 280.739 333.078 279.72 333.037C278.701 332.996 276.171 336.421 274.662 336.949C273.153 337.48 265.403 337.926 265.362 336.501C265.321 335.076 268.339 334.504 269.277 334.097C270.216 333.689 274.784 329.247 275.599 328.716C276.416 328.185 277.808 324.503 277.808 324.503L282.135 324.31C282.135 324.31 282.38 327.754 282.642 329.576C282.74 330.25 282.811 330.865 282.82 331.283C282.859 332.834 281.474 337.235 281.474 337.235Z" fill="#EEA886"/>
<path d="M309.344 336.414H308.427V332.546C307.662 332.611 305.093 335.041 304.297 335.743C303.504 336.444 302.411 336.414 299.062 336.626C295.712 336.839 295.396 334.835 295.927 334.153C296.458 333.47 298.171 333.172 299.062 332.747C299.953 332.32 303.471 328.356 304.41 327.419C305.346 326.481 305.919 323.795 305.919 323.795L309.834 324.135C309.834 324.135 309.808 326.593 310.254 328.653C310.256 328.657 310.256 328.664 310.259 328.668C310.295 328.844 310.339 329.017 310.384 329.184C310.965 331.33 309.344 336.414 309.344 336.414Z" fill="#EEA886"/>
<path d="M294.865 248.708C294.865 248.708 293.384 252.204 293.254 253.087C293.124 253.971 289.66 262.339 288.658 267.979C288.057 271.356 286.401 281.929 286.267 283.272C286.037 285.572 284.953 290.649 284.786 292.999C284.693 294.312 278.218 314.474 276.652 324.999C276.652 324.999 280.377 325.549 283.173 324.81C283.173 324.81 288.857 313.932 292.014 298.501C293.915 289.207 295.595 284.253 297.067 280.425C298.539 276.598 306.881 265.757 307.75 264.539C308.622 263.322 314.076 256.592 308.91 249.299C303.744 242.01 294.865 248.708 294.865 248.708Z" fill="#292C47"/>
<path d="M313.51 279.678C313.038 282.817 313.534 286.941 314.521 298.419C315.509 309.895 312.793 323.792 312.793 323.792C309.383 324.958 305.457 323.792 305.457 323.792C305.548 322.985 305.457 295.818 305.457 293.396C305.457 290.974 304.761 288.228 304.581 285.449C304.457 283.555 303.577 280.064 302.584 276.498C302.287 275.43 301.979 274.358 301.68 273.319C301.68 273.316 301.68 273.316 301.68 273.316C301.511 272.734 301.349 272.162 301.188 271.607C299.79 266.766 297.913 248.069 297.913 248.069C297.913 248.069 308.327 239.686 313.398 247.577C318.468 255.466 315.865 261.206 315.687 262.191C315.509 263.181 313.983 276.542 313.51 279.678Z" fill="#292C47"/>
<path d="M309.192 262.818C309.112 262.997 303.922 274.506 302.587 276.501C302.29 275.433 301.982 274.36 301.682 273.321C301.682 273.319 301.682 273.319 301.682 273.319C301.682 273.319 309.019 263.071 309.192 262.818Z" fill="#191B2B"/>
<path d="M309.344 336.414H308.427V332.546C307.661 332.611 305.093 335.041 304.297 335.743C303.503 336.445 302.411 336.414 299.062 336.627C295.712 336.839 295.396 334.835 295.927 334.153C296.458 333.471 298.171 333.172 299.062 332.747C302.645 332.938 307.02 327.904 309.118 327.915C310.235 327.919 310.224 328.538 310.256 328.653C310.259 328.658 310.259 328.664 310.261 328.668C310.298 328.844 310.341 329.017 310.386 329.184C310.965 331.33 309.344 336.414 309.344 336.414Z" fill="#C6C9CC"/>
<path d="M281.474 337.235H280.372C280.372 337.235 280.739 333.078 279.72 333.037C278.701 332.996 276.171 336.421 274.662 336.949C273.153 337.48 265.403 337.926 265.362 336.501C265.321 335.076 268.339 334.504 269.277 334.096C272.473 334.09 277.671 330.574 279.284 329.862C280.895 329.149 282.64 329.578 282.64 329.578C282.738 330.252 282.809 330.867 282.818 331.285C282.859 332.834 281.474 337.235 281.474 337.235Z" fill="#C6C9CC"/>
<path d="M304.061 204.819C304.061 204.819 305.723 209.211 304.429 212.608C304.429 212.608 310.523 212.211 310.753 211.501C310.985 210.79 310.508 204.208 311.347 202.263C312.184 200.315 304.061 204.819 304.061 204.819Z" fill="#EEA886"/>
<path d="M303.471 211.12C303.471 211.12 299.87 212.4 298.242 212.755C296.614 213.11 293.211 214.722 293.488 220.787C293.766 226.852 294.78 232.113 295.151 234.719C295.519 237.325 295.29 243.96 294.689 247.183C294.689 247.183 303.321 249.362 313.478 247.183C313.478 247.183 311.679 241.685 311.724 240.264C311.77 238.843 317.725 227.138 318.002 225.29C318.28 223.442 319.478 215.292 316.756 213.492C314.033 211.692 311.815 211.928 310.662 211.122C309.506 210.314 305.155 210.541 303.471 211.12Z" fill="#6F5BE0"/>
<path d="M317.365 256.713C302.617 260.623 290.88 256.729 290.88 256.729C291.951 254.53 292.738 252.338 293.308 250.215C293.308 250.215 293.308 250.215 293.308 250.213C293.711 248.714 294.006 247.25 294.216 245.842C295.415 237.814 293.852 231.667 293.852 231.667C295.554 217.668 316.753 213.489 318.451 217.928C320.148 222.366 315.16 241.436 314.909 243.071C314.657 244.705 317.365 256.713 317.365 256.713Z" fill="#6F5BE0"/>
<path d="M309.37 187.193C306.92 186.353 300.299 185.46 298.602 195.615C296.907 205.77 300.601 205.945 304.397 205.655C308.193 205.367 314.128 198.511 314.583 196.427C315.039 194.343 316.361 189.589 309.37 187.193Z" fill="#EEA886"/>
<path d="M299.968 191.092C299.968 191.092 301.99 195.416 304.644 196.923C304.644 196.923 306.307 201.517 309.905 203.376C309.905 203.376 319.457 197.053 313.914 189.541C308.373 182.027 300.594 188.01 299.968 191.092Z" fill="#0F324F"/>
<path d="M304.41 195.424C304.624 194.896 306.055 194.036 306.699 195.487C307.341 196.936 305.036 199.49 304.403 199.351C303.77 199.213 303.595 197.428 304.41 195.424Z" fill="#EEA886"/>
<path d="M313.591 190.7C313.799 190.375 320.125 187.449 321.44 193.561C322.756 199.674 316.346 206.783 315.223 209.84C314.1 212.896 315.73 220.059 315.73 220.059C315.73 220.059 311.874 216.416 310.707 212.603C309.426 208.419 308.995 197.861 313.591 190.7Z" fill="#0F324F"/>
<path d="M313.909 190.492C313.909 190.492 311.973 192.024 311.724 194.437C311.724 194.437 311.36 192.552 312.142 191.402C312.921 190.252 313.909 190.492 313.909 190.492Z" fill="#E54242"/>
<path d="M293.308 250.213C293.711 248.714 294.236 245.43 294.446 244.022C294.446 244.022 295.333 243.36 295.517 242.788C295.834 241.796 298.288 229.666 298.288 229.666C298.288 229.666 300.87 241.064 293.308 250.213Z" fill="#1D3B54"/>
<path d="M282.696 247.265C282.696 247.265 280.06 248.487 279.445 248.677C278.829 248.868 277.643 247.822 273.277 247.497C272.893 247.469 272.219 247.813 272.377 248.32C272.536 248.827 274.437 250.202 275.25 250.412C276.063 250.622 279.902 252.145 281.771 251.398C283.641 250.651 284.914 248.272 284.914 248.272L282.696 247.265Z" fill="#EEA886"/>
<path d="M297.225 213.087C297.225 213.087 292.174 215.086 291.875 222.1C291.576 229.113 291.303 232.774 291.027 233.857C290.752 234.94 290.23 239.29 288.959 241.908C287.726 244.449 279.603 248.463 279.603 248.463L282.072 251.604C282.072 251.604 294.83 244.856 295.515 242.788C296.2 240.719 299.02 226.328 299.246 223.902C299.428 221.946 302.01 213.234 297.225 213.087Z" fill="#6F5BE0"/>
<path d="M249.567 231.201C249.561 231.39 249.548 231.576 249.535 231.765H256.762C256.775 231.576 256.782 231.39 256.788 231.201H249.567ZM168.953 229.206C168.953 229.427 168.953 229.64 168.959 229.861C168.972 230.773 169.011 231.68 169.089 232.581C169.278 235.146 169.692 237.652 170.314 240.082C172.291 247.854 176.35 254.799 181.858 260.277C182.073 260.498 182.285 260.703 182.5 260.911C183.363 261.741 184.262 262.538 185.197 263.287C192.756 269.435 202.394 273.113 212.896 273.113C213.071 273.113 213.247 273.113 213.42 273.106C221.387 273.015 228.849 270.802 235.259 267.004C238.171 265.282 240.859 263.236 243.291 260.909C248.353 256.057 252.262 250.009 254.551 243.214C254.894 242.186 255.206 241.142 255.479 240.08C255.958 238.189 256.322 236.246 256.548 234.271V234.264C256.593 233.844 256.639 233.422 256.671 232.995C256.71 232.588 256.743 232.178 256.762 231.765C256.775 231.576 256.782 231.39 256.788 231.201C256.808 230.788 256.821 230.378 256.827 229.965C256.834 229.711 256.834 229.46 256.834 229.206C256.834 207.229 240.674 189.024 219.575 185.811C219.167 185.746 218.757 185.688 218.343 185.636C217.89 185.584 217.435 185.532 216.982 185.493C216.574 185.454 216.158 185.421 215.751 185.395C214.803 185.33 213.852 185.304 212.898 185.304C212.087 185.304 211.283 185.324 210.487 185.369C209.119 185.441 207.771 185.584 206.435 185.777C193.697 187.648 182.736 194.987 176.02 205.33C174.678 207.39 173.505 209.573 172.519 211.858C172.454 212.001 172.395 212.151 172.337 212.292C172.272 212.428 172.22 212.571 172.168 212.705C171.832 213.515 171.526 214.338 171.247 215.166C170.52 217.317 169.957 219.544 169.575 221.831C169.465 222.433 169.38 223.042 169.295 223.657C169.289 223.761 169.276 223.865 169.263 223.975C169.256 223.982 169.256 223.988 169.256 224.001C169.25 224.053 169.243 224.105 169.243 224.157C169.23 224.216 169.224 224.274 169.217 224.339V224.385C169.211 224.411 169.204 224.443 169.204 224.476C169.198 224.521 169.191 224.567 169.191 224.612C169.178 224.723 169.165 224.833 169.159 224.944C169.094 225.617 169.042 226.297 169.009 226.978C169.003 227.069 168.996 227.166 168.996 227.257C168.99 227.406 168.983 227.556 168.977 227.703C168.959 228.204 168.953 228.702 168.953 229.206ZM178.802 242.866L178.632 242.439C178.509 242.121 178.392 241.804 178.277 241.479L178.01 240.702C177.945 240.507 177.88 240.314 177.822 240.119C177.815 240.106 177.815 240.093 177.809 240.08C177.796 240.041 177.783 240.009 177.776 239.97C177.672 239.645 177.581 239.316 177.49 238.986L177.386 238.605C177.288 238.256 177.204 237.899 177.119 237.544C177.113 237.511 177.1 237.472 177.093 237.433C177.022 237.104 176.95 236.773 176.885 236.441C176.853 236.305 176.827 236.168 176.801 236.034C176.723 235.62 176.651 235.198 176.586 234.778C176.469 234.039 176.384 233.294 176.313 232.542C176.287 232.289 176.267 232.031 176.248 231.771C176.248 231.771 176.254 231.771 176.248 231.765C176.248 231.68 176.241 231.602 176.235 231.518C176.215 231.167 176.196 230.818 176.183 230.469V230.365C176.176 230.287 176.176 230.203 176.176 230.118C176.17 229.813 176.163 229.51 176.163 229.204C176.163 228.918 176.163 228.635 176.176 228.355C176.196 227.216 176.274 226.094 176.41 224.987C176.417 224.87 176.43 224.753 176.449 224.636C176.449 224.63 176.449 224.623 176.456 224.617C176.449 224.61 176.456 224.61 176.456 224.61C176.449 224.604 176.449 224.597 176.456 224.591C176.456 224.565 176.456 224.539 176.462 224.519C176.462 224.513 176.462 224.506 176.462 224.506C176.462 224.493 176.462 224.487 176.469 224.48C177.169 219.006 179.081 213.916 181.921 209.473C185.24 204.286 189.829 199.986 195.249 197.019C196.682 196.228 198.174 195.535 199.708 194.946C200.194 194.757 200.693 194.577 201.193 194.415C203.975 193.475 206.91 192.866 209.952 192.634C210.925 192.55 211.903 192.511 212.896 192.511C213.195 192.511 213.485 192.511 213.784 192.524C214.127 192.53 214.465 192.543 214.808 192.556C215.055 192.569 215.3 192.589 215.547 192.608C215.618 192.608 215.683 192.615 215.748 192.621C216.156 192.647 216.572 192.686 216.98 192.732C217.084 192.745 217.188 192.758 217.292 192.771C217.455 192.79 217.624 192.81 217.784 192.836C217.973 192.855 218.155 192.881 218.341 192.914C218.755 192.972 219.165 193.044 219.573 193.115C219.612 193.122 219.651 193.128 219.683 193.135C220 193.193 220.318 193.258 220.635 193.33C220.654 193.336 220.674 193.336 220.693 193.343C220.823 193.369 220.96 193.401 221.088 193.434C221.387 193.499 221.678 193.57 221.97 193.648C222.1 193.674 222.23 193.707 222.352 193.746C222.688 193.837 223.026 193.928 223.362 194.032C223.685 194.122 224.004 194.226 224.32 194.33C224.47 194.376 224.619 194.428 224.76 194.48C225.395 194.694 226.024 194.926 226.64 195.18C226.809 195.245 226.978 195.316 227.145 195.387C227.405 195.498 227.656 195.608 227.917 195.723C228.125 195.814 228.331 195.905 228.532 196.009C228.838 196.146 229.135 196.295 229.434 196.442C229.77 196.611 230.102 196.785 230.427 196.967C230.802 197.168 231.166 197.374 231.528 197.588C232.281 198.028 233.007 198.496 233.72 198.987C234.026 199.195 234.323 199.408 234.622 199.635C234.997 199.902 235.361 200.179 235.717 200.465C236.035 200.718 236.352 200.976 236.664 201.242C236.989 201.515 237.299 201.786 237.611 202.072C244.989 208.782 249.617 218.458 249.617 229.211C249.617 229.464 249.617 229.715 249.61 229.969C249.604 230.383 249.591 230.792 249.565 231.206C249.558 231.394 249.545 231.58 249.532 231.769C249.5 232.183 249.467 232.592 249.422 232.999C249.305 234.165 249.129 235.31 248.904 236.445C248.657 237.682 248.347 238.9 247.976 240.084C247.683 241.031 247.354 241.962 246.983 242.87C244.52 249.017 240.436 254.342 235.257 258.319C234.026 259.265 232.736 260.132 231.394 260.916C226.104 264.004 219.971 265.813 213.418 265.902C213.242 265.908 213.067 265.908 212.893 265.908C206.145 265.908 199.819 264.089 194.386 260.916C188.501 257.482 183.658 252.457 180.449 246.427C180.286 246.115 180.124 245.805 179.97 245.493L179.684 244.897C179.567 244.664 179.463 244.432 179.354 244.191L179.25 243.957C179.159 243.749 179.068 243.544 178.984 243.329L178.802 242.866Z" fill="#3F444F"/>
<path opacity="0.1" d="M238.769 255.064C253.061 240.784 253.061 217.632 238.769 203.353C224.478 189.073 201.307 189.073 187.016 203.353C172.724 217.632 172.724 240.784 187.016 255.064C201.307 269.343 224.478 269.343 238.769 255.064Z" fill="#B8B8B8"/>
<path opacity="0.3" d="M237.611 202.066C237.611 202.066 189.951 196.163 180.453 246.422C177.72 241.289 176.17 235.43 176.17 229.209C176.17 208.943 192.613 192.513 212.896 192.513C222.415 192.513 231.086 196.13 237.611 202.066Z" fill="#869AC2"/>
<path d="M78.5964 270.394L94.5194 279.141L110.512 253.995L91.17 247.282L78.5964 270.394Z" fill="#292C47"/>
<path d="M79.6044 269.641L94.4977 277.82L109.454 254.303L91.3651 248.025L79.6044 269.641Z" fill="#E2D2CA"/>
<path d="M74.1523 265.241C74.1523 265.241 76.925 263.918 78.1412 263.225C79.3573 262.532 82.4877 261.583 82.7392 261.355C82.9928 261.13 92.0155 260.573 92.564 260.101C93.1124 259.629 93.6436 261.208 91.3044 261.719C88.9653 262.23 85.7113 263.482 85.5314 264.397C85.3537 265.311 87.9334 265.525 88.1957 266.279C88.458 267.03 88.122 266.862 87.7535 267.024C87.3828 267.184 84.6838 265.692 83.498 266.114C82.31 266.539 80.4955 265.952 79.5871 266.262C78.6788 266.571 74.2542 268.059 74.2542 268.059L74.1523 265.241Z" fill="#EEA886"/>
<path d="M95.2976 275.987C95.2976 275.987 97.6259 273.893 98.7532 273.017C99.8805 272.142 101.994 269.565 102.306 269.415C102.618 269.266 106.657 260.985 107.314 260.654C107.973 260.322 106.692 259.207 105.298 261.21C103.904 263.214 101.457 265.791 100.526 265.603C99.5965 265.415 100.396 262.902 99.7894 262.363C99.1824 261.823 99.2106 262.204 98.9136 262.49C98.6166 262.776 98.9743 265.9 98.1137 266.851C97.2509 267.804 97.0991 269.74 96.4509 270.477C95.8027 271.213 92.6788 274.798 92.6788 274.798L95.2976 275.987Z" fill="#EEA886"/>
<path d="M45.1485 387.913C45.1485 387.913 44.6455 391.407 44.5826 391.931C44.5198 392.455 38.9787 391.621 38.9787 391.621L38.53 387.462C38.53 387.462 44.4569 387.419 45.1485 387.913Z" fill="#424773"/>
<path d="M44.6412 391.487C44.6412 391.487 46.3972 393.592 48.0946 394.508C49.792 395.427 52.4607 395.789 53.4644 396.739C54.1885 397.426 56.1048 400.376 49.0528 400.318C42.0007 400.259 38.6015 400.736 37.8471 399.603C37.0905 398.472 38.9397 391.251 38.9397 391.251C38.9397 391.251 40.609 391.848 44.6412 391.487Z" fill="#292C47"/>
<path d="M84.8463 387.913C84.8463 387.913 84.3434 391.407 84.2805 391.931C84.2176 392.455 78.6766 391.621 78.6766 391.621L78.2278 387.462C78.2278 387.462 84.1526 387.419 84.8463 387.913Z" fill="#424773"/>
<path d="M84.3391 391.487C84.3391 391.487 86.095 393.592 87.7925 394.508C89.4899 395.427 95.7377 396.178 96.7414 397.129C97.4655 397.816 98.6708 400.576 88.7507 400.316C81.7008 400.131 78.2994 400.734 77.545 399.601C76.7884 398.47 78.6376 391.248 78.6376 391.248C78.6376 391.248 80.2093 391.89 84.3391 391.487Z" fill="#292C47"/>
<path d="M49.7357 298.148C49.7357 298.148 44.5306 306.412 44.9187 313.883C45.3067 321.353 43.0305 329.509 42.25 337.313C41.3785 346.012 37.8102 366.609 37.6802 371.262C37.5501 375.915 38.233 390.776 38.233 390.776L45.3739 390.939C45.3739 390.939 51.3724 354.932 52.9268 351.258C54.4811 347.585 62.1835 321.392 62.4437 318.453C62.7038 315.514 49.7357 298.148 49.7357 298.148Z" fill="#292C47"/>
<path d="M77.1417 299.268C77.1417 299.268 81.0656 319.744 81.5837 324.315C82.1018 328.887 82.4465 346.441 82.7066 349.298C82.9646 352.155 84.4323 386.693 85.8132 390.939H76.68C76.68 390.939 69.6713 365.832 69.6713 353.953C69.6713 342.074 64.2559 328.129 60.7614 320.29C57.2668 312.453 49.2652 312.267 47.1168 297.726C47.1168 297.726 74.2325 294.657 77.1417 299.268Z" fill="#292C47"/>
<path d="M58.4223 228.667C58.4223 228.667 65.4093 226.059 68.6307 231.375C71.8522 236.69 71.5422 247.33 68.0194 248.638C64.4966 249.947 59.207 249.262 57.4034 245.937C55.5997 242.612 53.9717 237.804 54.0497 234.591C54.1321 231.377 56.5883 229.594 58.4223 228.667Z" fill="#EEA886"/>
<path d="M67.2628 248.881C67.2628 248.881 66.9723 250.765 67.4536 251.695C67.9349 252.624 58.4006 252.648 58.4006 252.648C58.4006 252.648 57.6267 247.596 56.159 243.329C54.6935 239.062 67.2628 248.881 67.2628 248.881Z" fill="#EEA886"/>
<path d="M56.1591 243.329C56.1591 243.329 56.8159 244.414 59.5019 243.992C62.1879 243.572 65.4635 240 66.5865 239.608C67.7073 239.216 67.7181 238.557 67.7181 238.557L68.4205 239.582L69.6107 239.658C69.6107 239.658 68.5246 236.463 70.1635 235.161C71.8024 233.859 68.4617 224.824 59.8488 227.831C59.8488 227.831 53.2325 229.653 53.4731 233.413C53.7159 237.173 54.6784 241.456 56.1591 243.329Z" fill="#3A3F47"/>
<path d="M68.0194 251.582C68.0194 251.582 67.989 249.808 67.1848 249.637C66.3805 249.466 58.3009 248.69 57.3123 249.078V251.144C57.3123 251.147 59.2157 252.316 68.0194 251.582Z" fill="#E2D2CA"/>
<path d="M67.5403 237.191C67.3907 236.56 65.7843 234.758 65.1708 236.688C64.5573 238.618 66.0987 241.213 66.9593 240.99C67.82 240.769 67.924 238.791 67.5403 237.191Z" fill="#EEA886"/>
<path d="M100.082 272.545C100.078 272.543 100.073 272.543 100.069 272.545C100.126 272.567 100.134 272.569 100.082 272.545Z" fill="#323657"/>
<path d="M43.863 317.836C43.863 317.836 48.1488 319.096 55.4545 319.902C62.7624 320.706 81.0201 319.612 81.135 318.75C81.2499 317.888 77.2069 286.629 77.4367 285.02C77.6665 283.41 77.79 277.675 77.79 277.675C77.8811 279.247 79.4831 285.665 81.4169 289.166C82.1149 290.431 84.4605 294.392 85.59 293.491C91.0595 289.127 99.5294 272.684 100.067 272.545C99.6161 272.348 96.0521 270.711 95.5535 270.544C95.1156 270.399 91.1701 274.573 88.7789 277.159C87.7123 278.313 86.9558 279.152 86.9558 279.152C86.2664 277.599 83.7495 267.821 82.969 264.438C81.2066 256.807 81.4776 256.488 81.4776 256.488C76.1316 254.872 68.0173 251.584 68.0173 251.584L57.3102 251.149C57.3102 251.149 47.4833 253.31 43.6137 255.056C43.2473 255.221 43.2451 263.816 42.2371 266.069L45.4455 272.831C45.4455 272.831 47.299 286.228 47.6827 292.187C47.8627 294.921 43.863 317.836 43.863 317.836Z" fill="#323657"/>
<path d="M41.7947 277.224C42.0744 278.125 43.3448 278.888 44.1685 279.221C44.6975 279.433 45.2872 279.503 45.8833 279.392L46.3017 279.314L53.6399 277.954C53.6399 277.954 55.2463 259.479 43.6157 255.052C43.3079 255.154 39.2258 268.952 41.7947 277.224Z" fill="#323657"/>
<path d="M44.1686 279.221C44.6975 279.436 45.2872 279.505 45.8834 279.394L46.3018 279.316L45.5777 269.877L44.1686 279.221Z" fill="#252840"/>
<path d="M86.9579 279.15L87.8554 282.945C87.8554 282.945 88.8287 279.137 88.7811 277.159C87.7145 278.311 86.9579 279.15 86.9579 279.15Z" fill="#252840"/>
<path d="M56.4343 229.295C56.4343 229.295 47.2751 228.24 56.2782 243.524L56.4343 229.295Z" fill="#3A3F47"/>
<path d="M103.152 252.648L104.082 251.049L96.7501 248.521L95.8179 250.111L103.152 252.648Z" fill="#292C47"/>
<path d="M195.96 267.115C195.96 267.115 197.413 265.77 197.124 264.763C196.879 263.905 197.248 262.945 197.341 262.549C197.465 262.02 197.515 260.309 197.909 260.402C198.577 260.563 198.421 263.296 198.503 263.879C198.585 264.462 200.35 262.512 200.953 262.408C201.555 262.304 204.621 265.408 203.255 266.606C201.889 267.804 200.005 268.291 199.806 268.549C199.607 268.807 198.672 269.517 198.672 269.517L195.96 267.115Z" fill="#EEA987"/>
<path d="M200.567 262.614C200.567 262.614 204.994 259.224 205.477 259.246C205.961 259.267 206.132 259.516 205.731 259.85C205.33 260.183 201.549 263.248 201.549 263.248C201.549 263.248 207.463 260.116 207.862 260.047C208.096 260.006 208.274 260.454 208.076 260.651C207.879 260.851 202.375 264.308 202.375 264.308C202.375 264.308 207.901 261.392 208.254 261.435C208.562 261.472 208.783 261.981 208.389 262.226C207.994 262.471 203.017 265.464 203.017 265.464C203.017 265.464 207.172 263.595 207.45 263.807C207.619 263.935 207.857 264.219 206.771 264.667C205.683 265.116 203.318 266.547 203.318 266.547L200.567 262.614Z" fill="#EEA987"/>
<path d="M165.216 226.233C165.216 226.233 175.803 225.353 175.513 236.48C175.222 247.607 173.458 249.282 175.519 257.147C177.581 265.01 165.198 252.682 165.198 252.682L165.216 226.233Z" fill="#E8734D"/>
<path d="M132.964 392.778C132.964 392.778 129.034 398.297 129.572 399.17C130.111 400.045 134.245 400.168 136.762 399.17C139.279 398.169 139.338 391.703 140.476 388.924C140.953 387.761 139.932 384.328 138.499 384.079C137.066 383.83 135.505 384.562 135.505 384.562C135.505 384.562 136.994 388.476 132.964 392.778Z" fill="#363A5E"/>
<path d="M135.481 384.516C135.481 384.516 134.655 386.866 134.352 389.11C134.1 390.971 131.551 394.922 131.67 395.422C131.789 395.923 135.026 396.376 136.344 395.087C137.662 393.798 138.51 390.051 138.8 387.811C139.071 385.723 139.411 384.692 139.411 384.692C139.411 384.692 136.738 383.143 135.481 384.516Z" fill="#EEA886"/>
<path d="M167.184 392.869C167.184 392.869 163.395 398.295 163.934 399.17C164.474 400.045 168.608 400.168 171.125 399.17C173.642 398.169 173.701 391.703 174.841 388.924C175.318 387.761 174.297 384.328 172.864 384.079C171.431 383.83 169.749 384.614 169.749 384.614C169.749 384.614 171.212 388.567 167.184 392.869Z" fill="#363A5E"/>
<path d="M169.744 384.614C169.744 384.614 169.445 387.176 168.966 388.987C168.487 390.798 165.911 394.922 166.031 395.422C166.15 395.923 169.387 396.375 170.705 395.087C172.023 393.798 173.042 390.068 173.161 387.811C173.28 385.554 172.862 384.081 172.862 384.081C172.862 384.081 171.004 383.24 169.744 384.614Z" fill="#EEA886"/>
<path d="M150.808 294.778C150.808 294.778 147.435 311.14 146.661 315.26C145.887 319.38 143.717 339.332 143.485 342.726C143.253 346.118 139.964 358.902 140.12 360.113C140.274 361.324 134.781 385.342 134.781 385.342C134.781 385.342 138.674 385.762 140.227 385.112C141.287 384.668 149.811 363.007 149.811 356.949C149.811 348.575 154.491 337.64 155.17 335.734C161.849 316.972 163.074 312.52 164.004 311.39C164.004 311.39 164.145 312.921 164.461 315.462C164.825 318.386 166.421 339.267 167.117 342.014C167.815 344.76 167.273 354.05 167.661 358.736C168.049 363.421 168.766 384.791 168.766 384.791C168.766 384.791 172.263 384.943 173.805 384.025C174.321 383.717 176.105 361.06 176.183 355.487C176.261 349.913 176.343 342.226 176.493 339.815C177.928 316.718 181.455 313.419 175.899 297.072C165.491 266.467 150.808 294.778 150.808 294.778Z" fill="#313657"/>
<path d="M140.582 388.439V394.216H139.865V389.752L140.582 388.439Z" fill="#363A5E"/>
<path d="M174.943 388.439V394.216H174.223V389.752L174.943 388.439Z" fill="#363A5E"/>
<path d="M160.81 255.841C160.81 255.841 161.74 253.655 162.434 251.201C162.467 251.084 162.497 250.967 162.527 250.85C162.61 250.529 162.686 250.207 162.755 249.886C162.794 249.704 162.829 249.522 162.863 249.34C163.108 247.988 163.178 246.695 162.866 245.773C161.84 242.742 169.302 244.841 169.302 244.841C169.302 244.841 167.856 252.856 169.302 255.559C170.744 258.264 160.81 255.841 160.81 255.841Z" fill="#EEA886"/>
<path d="M173.469 255.708C174.301 254.669 168.454 254.307 168.454 254.307L161.634 253.72C161.634 253.72 156.945 254.5 153.307 255.758C149.67 257.017 144.903 263.903 144.903 263.903C144.903 263.903 151.478 279.327 152.74 283.755C153.997 288.182 151.311 299.446 151.311 299.446C159.193 303.733 174.761 299.903 174.761 299.903C174.761 299.903 168.556 261.854 173.469 255.708Z" fill="#EDDAD3"/>
<path d="M176.248 274.302C176.248 274.302 175.942 274.948 175.101 277.495C174.245 270.345 174.691 266.623 174.691 266.623C174.784 270.442 176.248 274.302 176.248 274.302Z" fill="#CFBEB8"/>
<path d="M168.834 254.069L160.808 260.606L161.634 253.72C161.636 253.72 166.315 252.711 168.834 254.069Z" fill="#EEA886"/>
<path d="M174.13 281.61C173.026 286.183 178.609 300.498 178.609 300.498L169.185 303.687C168.019 304.081 166.776 303.347 166.562 302.138C165.5 296.184 162.744 280.218 162.432 273.139C162.044 264.345 168.452 253.969 168.452 253.969C179.842 255.921 176.72 273.139 176.72 273.139C176.72 273.139 176.306 274.224 175.754 275.918C175.754 275.918 175.754 275.918 175.754 275.92C175.615 276.345 175.467 276.81 175.313 277.306C174.925 278.578 174.505 280.055 174.13 281.61Z" fill="#494F80"/>
<path d="M160.83 254.095L160.971 253.718C160.971 253.718 155.137 254.604 152.174 256.083C149.21 257.563 143.535 265.207 143.535 265.207L150.957 274.999C150.966 282.524 148.339 300.18 148.339 300.18L153.498 302.288C154.303 302.617 155.185 302.034 155.198 301.168C155.28 295.794 155.532 279.877 155.657 273.667C155.811 266.142 161.185 253.971 161.185 253.971C161.062 254.01 160.945 254.051 160.83 254.095Z" fill="#494F80"/>
<path d="M150.253 289.378C150.253 289.378 155.85 289.595 156.72 289.378C157.591 289.161 163.399 286.644 163.748 284.158C164.097 281.673 150.253 286.387 150.253 286.387V289.378Z" fill="#EEA886"/>
<path d="M167.62 281.613L144.905 278.955L155.165 287.296L167.62 281.613Z" fill="#707070"/>
<path d="M155.165 287.296L167.62 283.055V281.612L154.747 285.737L155.165 287.296Z" fill="#A1A1A1"/>
<path d="M162.055 252.448L157.741 259.291L155.653 260.606L160.518 253.794L162.055 252.448Z" fill="#FAE6DE"/>
<path d="M157.741 259.291L160.808 260.606L161.636 253.72L162.055 252.448L157.741 259.291Z" fill="#D6C5BE"/>
<path d="M150.938 286.179C150.938 286.179 150.704 289.068 150.938 289.675C150.938 289.675 136.931 288.275 135.624 286.319C134.319 284.361 134.365 281.985 134.365 281.985L150.938 286.179Z" fill="#494F80"/>
<path d="M155.165 287.296L148.542 262.692L123.358 260.036L130.261 282.683L155.165 287.296Z" fill="#A1A1A1"/>
<path d="M187.809 273.23C189.073 272.188 189.814 271.807 191.336 270.496C193.706 268.458 196.734 265.878 196.734 265.878L199.613 270.1C199.613 270.1 192.652 276.215 188.954 279.843C188.954 279.843 184.271 284.866 183.224 284.422C182.177 283.978 178.446 278.571 175.465 273.373C172.484 268.176 171.149 264.856 170.999 262.594C170.85 260.331 178.348 259.241 178.348 259.241L184.219 272.054C184.219 272.054 185.264 273.886 185.795 274.441C185.797 274.443 187.117 273.693 187.809 273.23Z" fill="#494F80"/>
<path d="M166.252 227.359C163.627 226.93 157.624 227.586 155.922 234.472C155.922 234.472 155.918 236.381 156.206 237.912C156.494 239.443 154.667 243.656 154.99 243.912C155.311 244.168 156.711 244.605 156.711 244.605C156.711 244.605 157.704 249.548 159.384 249.7C161.064 249.849 167.555 249.267 171.221 243.676C174.884 238.085 176.848 229.092 166.252 227.359Z" fill="#EEA886"/>
<path d="M155.922 234.472C155.922 234.472 159.872 237.879 164.056 238.954C168.24 240.028 170.455 244.724 170.455 244.724C170.455 244.724 177.856 237.347 173.391 230.188C168.92 223.029 155.928 226.222 155.922 234.472Z" fill="#E8734D"/>
<path d="M164.823 239.199C164.823 239.199 169.202 250.683 168.691 253.449C168.691 253.449 170.854 253.075 174.889 254.307C174.889 254.307 172.94 233.794 164.823 239.199Z" fill="#E8734D"/>
<path d="M163.128 259.495L160.808 260.606L168.691 252.797L163.128 259.495Z" fill="#D6C5BE"/>
<path d="M168.691 252.797L163.128 259.495L166.172 262.207L169.456 254.19L168.691 252.797Z" fill="#FAE6DE"/>
<path d="M167.164 247.594C167.13 247.653 165.922 249.526 162.525 250.85C162.608 250.529 162.683 250.207 162.753 249.886C162.792 249.704 162.827 249.522 162.861 249.34C162.859 249.342 165.671 248.656 167.164 247.594Z" fill="#A77860"/>
<path d="M140.058 272.979C140.758 274.296 140.747 275.671 140.031 276.05C139.316 276.429 138.169 275.669 137.469 274.352C136.769 273.035 136.78 271.659 137.495 271.28C138.211 270.901 139.357 271.662 140.058 272.979Z" fill="#828282"/>
<path d="M169.456 254.19C169.456 254.19 176.792 253.196 178.929 260.87C178.929 260.87 169.601 259.867 169.456 254.19Z" fill="#494F80"/>
<path d="M398.95 175.813H300.417C295.879 175.813 292.203 172.139 292.203 167.605V50.6092C292.203 46.0756 295.879 42.4019 300.417 42.4019H398.95C403.488 42.4019 407.164 46.0756 407.164 50.6092V167.605C407.164 172.137 403.485 175.813 398.95 175.813Z" fill="#F5F5F5"/>
<path d="M361.993 97.7364C357.594 85.4483 345.84 77.8995 333.45 78.2721C330.452 78.3631 327.415 78.9154 324.436 79.9811C315.414 83.2064 308.943 90.387 306.285 98.8715C304.442 104.752 304.431 111.257 306.669 117.506C306.89 118.128 307.133 118.739 307.393 119.337C308.57 122.044 310.113 124.492 311.947 126.643C319.635 135.673 332.393 139.49 344.227 135.262C359.502 129.803 367.456 113.003 361.993 97.7364ZM341.747 128.345C332.874 131.516 323.311 128.655 317.547 121.884C316.173 120.27 315.015 118.435 314.133 116.404C313.938 115.955 313.758 115.498 313.588 115.03C311.911 110.345 311.921 105.467 313.302 101.059C315.295 94.6974 320.146 89.3126 326.912 86.8952C329.145 86.0981 331.421 85.6822 333.672 85.6129C342.959 85.3335 351.773 90.9913 355.071 100.206C359.166 111.656 353.202 124.251 341.747 128.345Z" fill="#4AAFFF"/>
<path d="M313.302 101.061L306.283 98.8715C308.941 90.387 315.412 83.2065 324.434 79.9812C327.413 78.9176 330.45 78.3631 333.448 78.2722L333.667 85.6173C331.419 85.6866 329.143 86.1004 326.908 86.8996C320.146 89.3148 315.297 94.6997 313.302 101.061Z" fill="#1A598C"/>
<path d="M314.133 116.404L307.391 119.337C307.13 118.739 306.89 118.128 306.666 117.506C304.429 111.257 304.442 104.752 306.283 98.8715L313.302 101.061C311.921 105.469 311.913 110.347 313.588 115.033C313.758 115.498 313.937 115.957 314.133 116.404Z" fill="#2273B5"/>
<path d="M311.945 126.645C310.111 124.492 308.568 122.044 307.391 119.339L314.132 116.406C315.013 118.435 316.172 120.272 317.547 121.886L311.945 126.645Z" fill="#3788CC"/>
<path d="M387.465 115.667C382.581 113.358 376.933 114.586 373.419 118.316C372.569 119.22 371.843 120.268 371.282 121.451C369.586 125.031 369.797 129.023 371.503 132.281C372.684 134.54 374.586 136.446 377.07 137.62C377.317 137.737 377.566 137.846 377.818 137.945C378.954 138.394 380.122 138.658 381.289 138.751C386.181 139.145 391.029 136.533 393.253 131.839C396.123 125.776 393.533 118.537 387.465 115.667ZM390.504 130.537C388.837 134.057 385.202 136.015 381.534 135.721C380.66 135.649 379.782 135.452 378.932 135.116C378.744 135.043 378.557 134.96 378.371 134.874C376.508 133.994 375.084 132.565 374.197 130.871C372.918 128.428 372.76 125.434 374.033 122.75C374.453 121.864 374.997 121.078 375.635 120.4C378.269 117.604 382.505 116.683 386.166 118.414C390.712 120.565 392.655 125.993 390.504 130.537Z" fill="#4AAFFF"/>
<path d="M374.198 130.871L371.503 132.281C369.797 129.023 369.586 125.031 371.282 121.451C371.841 120.268 372.567 119.22 373.419 118.316L375.633 120.4C374.995 121.078 374.451 121.864 374.031 122.75C372.76 125.434 372.916 128.428 374.198 130.871Z" fill="#1A598C"/>
<path d="M378.93 135.116L377.816 137.945C377.564 137.846 377.315 137.737 377.068 137.62C374.583 136.446 372.682 134.54 371.501 132.281L374.195 130.871C375.082 132.565 376.506 133.992 378.368 134.874C378.555 134.96 378.743 135.041 378.93 135.116Z" fill="#2273B5"/>
<path d="M378.533 146.753H355.84V146.302H378.082V137.737H378.533V146.753Z" fill="#E2F3FE"/>
<path d="M326.591 141.612H306.283V144.316H326.591V141.612Z" fill="#4AAFFF"/>
<path d="M367.785 141.612H355.84V144.316H367.785V141.612Z" fill="#4AAFFF"/>
<path d="M311.403 53.8517H301.682V55.9268H311.403V53.8517Z" fill="#4AAFFF"/>
<path d="M357.282 61.667H342.202V63.7421H357.282V61.667Z" fill="#4AAFFF"/>
<path d="M331.911 61.667H322.704V63.7421H331.911V61.667Z" fill="#4AAFFF"/>
<path d="M319.921 61.667H301.682V63.7421H319.921V61.667Z" fill="#4AAFFF"/>
<path d="M328.763 53.8517H314.362V55.9268H328.763V53.8517Z" fill="#4AAFFF"/>
<path d="M338.749 61.667H334.792V63.7421H338.749V61.667Z" fill="#4AAFFF"/>
<path d="M357.284 53.9688H346.525V56.0438H357.284V53.9688Z" fill="#4AAFFF"/>
<path d="M370.295 61.667H361.121V63.7421H370.295V61.667Z" fill="#4AAFFF"/>
<path d="M343.711 53.9688H332.306V56.0438H343.711V53.9688Z" fill="#4AAFFF"/>
<path d="M358.725 188.341H340.641C337.613 188.341 335.159 185.889 335.159 182.863V164.794C335.159 161.768 337.613 159.316 340.641 159.316H358.725C361.754 159.316 364.208 161.768 364.208 164.794V182.863C364.208 185.889 361.754 188.341 358.725 188.341Z" fill="white"/>
<path d="M351.058 168.054H348.309V179.603H351.058V168.054Z" fill="#C5CCD1"/>
<path d="M355.463 175.203V172.456H343.904V175.203H355.463Z" fill="#C5CCD1"/>
<path d="M451.599 49.8554L427.054 25.3332L415.404 36.9737L414.758 36.3282L427.054 24.0401L452.245 49.2099L451.599 49.8554Z" fill="url(#paint3_linear_514_27080)"/>
<defs>
<linearGradient id="paint0_linear_514_27080" x1="327.048" y1="30.4342" x2="179.015" y2="217" gradientUnits="userSpaceOnUse">
<stop stop-color="#FF9F55"/>
<stop offset="1" stop-color="#FFD358"/>
</linearGradient>
<linearGradient id="paint1_linear_514_27080" x1="236.881" y1="335.579" x2="236.881" y2="107.071" gradientUnits="userSpaceOnUse">
<stop stop-color="#FF9F55"/>
<stop offset="1" stop-color="#FFD255"/>
</linearGradient>
<linearGradient id="paint2_linear_514_27080" x1="282.779" y1="205.326" x2="299.22" y2="250.423" gradientUnits="userSpaceOnUse">
<stop stop-color="#40D5E6"/>
<stop offset="1" stop-color="#5577FF"/>
</linearGradient>
<linearGradient id="paint3_linear_514_27080" x1="414.758" y1="36.948" x2="452.245" y2="36.948" gradientUnits="userSpaceOnUse">
<stop stop-color="#FF9F55"/>
<stop offset="1" stop-color="#FFD255"/>
</linearGradient>
</defs>
</svg>
